<svg xmlns="http://www.w3.org/2000/svg" viewBox="0 0 1000 800" role="img" aria-label="In the Kitchen placeholder">
  <defs>
    <linearGradient id="grad-about-kitchen-jpg-svg" x1="0" y1="0" x2="1" y2="1">
      <stop offset="0%" stop-color="#F1E7D2" />
      <stop offset="100%" stop-color="#B7BC98" />
    </linearGradient>
  </defs>
  <rect width="1000" height="800" fill="url(#grad-about-kitchen-jpg-svg)" />
  <rect x="20" y="20" width="960" height="760" rx="28" fill="none" stroke="#8B9166" stroke-opacity="0.4" stroke-width="1.2" stroke-dasharray="1 9" stroke-linecap="round" />
  <g transform="translate(500.0,382.0)" fill="none" stroke="#8B9166" stroke-width="2" stroke-linecap="round" stroke-linejoin="round" opacity="0.8">
    
        <path d="M0,32 L0,-30" stroke-linecap="round"/>
        <path d="M0,-30 C-8,-24 -8,-16 0,-12 C8,-16 8,-24 0,-30Z"/>
        <path d="M0,-14 C-9,-9 -9,0 0,4 C9,0 9,-9 0,-14Z"/>
        <path d="M0,2 C-9,7 -9,16 0,20 C9,16 9,7 0,2Z"/>
    
  </g>
  <text x="500.0" y="444.0" text-anchor="middle" font-family="Georgia, 'Times New Roman', serif" font-style="italic" font-size="32" fill="#4A3A2C" opacity="0.78">In the Kitchen</text>
  <text x="500.0" y="470.0" text-anchor="middle" font-family="Helvetica, Arial, sans-serif" font-size="14" letter-spacing="2" fill="#4A3A2C" opacity="0.45">PHOTO COMING SOON</text>
</svg>