<svg xmlns="http://www.w3.org/2000/svg" viewBox="0 0 1300 1700" role="img" aria-label="Ruby's Table placeholder">
  <defs>
    <linearGradient id="grad-hero-home-jpg-svg" x1="0" y1="0" x2="1" y2="1">
      <stop offset="0%" stop-color="#F7E7B8" />
      <stop offset="100%" stop-color="#F1D2C4" />
    </linearGradient>
  </defs>
  <rect width="1300" height="1700" fill="url(#grad-hero-home-jpg-svg)" />
  <rect x="20" y="20" width="1260" height="1660" rx="28" fill="none" stroke="#8B9166" stroke-opacity="0.4" stroke-width="1.2" stroke-dasharray="1 9" stroke-linecap="round" />
  <g transform="translate(650.0,832.0)" fill="none" stroke="#8B9166" stroke-width="2" stroke-linecap="round" stroke-linejoin="round" opacity="0.8">
    
        <ellipse cx="0" cy="0" rx="30" ry="30" />
        <ellipse cx="0" cy="0" rx="18" ry="18" />
        <path d="M-42,-26 L-42,26 M-46,-26 L-46,-6 C-46,-2 -42,-2 -42,-6 M-38,-26 L-38,-6 C-38,-2 -42,-2 -42,-6" stroke-linecap="round"/>
        <path d="M42,-26 L42,26 M42,-26 C36,-26 36,-10 42,-8" stroke-linecap="round"/>
    
  </g>
  <text x="650.0" y="894.0" text-anchor="middle" font-family="Georgia, 'Times New Roman', serif" font-style="italic" font-size="32" fill="#4A3A2C" opacity="0.78">Ruby's Table</text>
  <text x="650.0" y="920.0" text-anchor="middle" font-family="Helvetica, Arial, sans-serif" font-size="14" letter-spacing="2" fill="#4A3A2C" opacity="0.45">HERO PHOTO — GATHERING AROUND THE TABLE</text>
</svg>